<?xml version="1.0" encoding="UTF-8" standalone="no"?>
<!-- Created with Inkscape (http://www.inkscape.org/) -->

<svg
   xmlns:dc="http://purl.org/dc/elements/1.1/"
   xmlns:cc="http://creativecommons.org/ns#"
   xmlns:rdf="http://www.w3.org/1999/02/22-rdf-syntax-ns#"
   xmlns:svg="http://www.w3.org/2000/svg"
   xmlns="http://www.w3.org/2000/svg"
   xmlns:sodipodi="http://sodipodi.sourceforge.net/DTD/sodipodi-0.dtd"
   xmlns:inkscape="http://www.inkscape.org/namespaces/inkscape"
   width="210mm"
   height="297mm"
   viewBox="0 0 744.09448819 1052.3622047"
   id="svg2"
   version="1.1"
   inkscape:version="0.91 r13725"
   sodipodi:docname="planimetria2.svg">
  <g
     inkscape:label="Livello 1"
     inkscape:groupmode="layer"
     id="layer1"
     style="display:inline">
    <path
       style="fill:none;fill-rule:evenodd;stroke:#000000;stroke-width:1px;stroke-linecap:butt;stroke-linejoin:miter;stroke-opacity:1"
       d="m 18.492546,663.73855 -1.681141,75.37114 7.004752,0.28019 1.681141,-75.65133 -7.004752,0 z"
       id="path3514"
       inkscape:path-effect="#path-effect3516"
       inkscape:original-d="m 18.492546,663.73855 -1.681141,75.37114 7.004752,0.28019 1.681141,-75.65133 z"
       inkscape:connector-curvature="0" />
  </g>
  <g
     inkscape:groupmode="layer"
     id="layer2"
     inkscape:label="Livello 2"
     style="display:inline">
    <path
       style="fill:none;fill-rule:evenodd;stroke:#000000;stroke-width:1px;stroke-linecap:butt;stroke-linejoin:miter;stroke-opacity:1"
       d="m 314.66252,109.88988 -66.16499,0 0,120.20815 -228.294479,0 0,79.29698 26.263966,0 0,-51.51778 209.606653,0 0,27.27412 27.27412,0 0,83.84266 7.57614,0 0,-83.33759 84.34774,0 0,-7.07107 -99.50002,0 0,-143.00886 39.94264,0 0,-25"
       id="path3440"
       inkscape:path-effect="#path-effect3442"
       inkscape:original-d="m 314.66252,109.88988 c -66.67007,0 -66.16499,0 -66.16499,0 l 0,120.20815 -228.294479,0 0,79.29698 26.263966,0 0,-51.51778 209.606653,0 0,27.27412 27.27412,0 0,83.84266 7.57614,0 0,-83.33759 84.34774,0 0,-7.07107 -99.50002,0 0,-143.00886 39.94264,0 0,-25"
       inkscape:connector-curvature="0" />
  </g>
  <path
     style="fill:none;fill-rule:evenodd;stroke:#000000;stroke-width:1px;stroke-linecap:butt;stroke-linejoin:miter;stroke-opacity:1"
     d="m 46.428572,309.50506 0,76.78572 -26.071429,0 0,-77.14286"
     id="path3444"
     inkscape:path-effect="#path-effect3446"
     inkscape:original-d="m 46.428572,309.50506 0,76.78572 -26.071429,0 0,-77.14286"
     inkscape:connector-curvature="0" />
  <path
     style="fill:none;fill-rule:evenodd;stroke:#000000;stroke-width:1px;stroke-linecap:butt;stroke-linejoin:miter;stroke-opacity:1"
     d="m 19.642857,385.93363 0,76.78572 26.428572,0 0,-35 160.714281,0 0,3.92857 7.5,0 0,-4.28572 68.92858,0 1.70284,6.35509 5.79716,0 0,-17.78366 -6.07143,0 0,5.71429 -237.500003,0 0,-35.71429 -27.5,0 z"
     id="path3448"
     inkscape:path-effect="#path-effect3450"
     inkscape:original-d="m 19.642857,385.93363 0,76.78572 26.428572,0 0,-35 160.714281,0 0,3.92857 7.5,0 0,-4.28572 68.92858,0 1.70284,6.35509 5.79716,0 0,-17.78366 -6.07143,0 0,5.71429 -237.500003,0 0,-35.71429 z"
     inkscape:connector-curvature="0" />
  <path
     style="fill:none;fill-rule:evenodd;stroke:#000000;stroke-width:1px;stroke-linecap:butt;stroke-linejoin:miter;stroke-opacity:1"
     d="m 18.928571,462.3622 0,42.85715 27.857143,0 0,-42.85715 -27.857143,0 z"
     id="path3452"
     inkscape:path-effect="#path-effect3454"
     inkscape:original-d="m 18.928571,462.3622 0,42.85715 27.857143,0 0,-42.85715 z"
     inkscape:connector-curvature="0" />
  <path
     style="fill:none;fill-rule:evenodd;stroke:#000000;stroke-width:1px;stroke-linecap:butt;stroke-linejoin:miter;stroke-opacity:1"
     d="m 18.571429,504.8622 0,159.09635 28.400664,0 0,-118.77123 258.409077,0 0,-5.8296 -14.79821,0 0,-57.84753 -5.6633,-1.51748 0,53.53541 -71.46675,0 0,-54.26009 -7.17488,0 0,54.26009 -160.089689,0 0,-28.25112 -27.616912,-0.4148 z"
     id="path3456"
     inkscape:path-effect="#path-effect3458"
     inkscape:original-d="m 18.571429,504.8622 0,159.09635 28.400664,0 0,-118.77123 258.409077,0 0,-5.8296 -14.79821,0 0,-57.84753 -5.6633,-1.51748 0,53.53541 -71.46675,0 0,-54.26009 -7.17488,0 0,54.26009 -160.089689,0 0,-28.25112 z"
     inkscape:connector-curvature="0" />
  <path
     style="fill:none;fill-rule:evenodd;stroke:#000000;stroke-width:1px;stroke-linecap:butt;stroke-linejoin:miter;stroke-opacity:1"
     d="m 17.040359,739.35772 0,102.69058 271.748881,0 0,-28.69955 -240.807177,0 0,-73.09417 -30.941704,-0.89686 z"
     id="path3464"
     inkscape:path-effect="#path-effect3466"
     inkscape:original-d="m 17.040359,739.35772 0,102.69058 271.748881,0 0,-28.69955 -240.807177,0 0,-73.09417 z"
     inkscape:connector-curvature="0" />
  <path
     style="fill:none;fill-rule:evenodd;stroke:#000000;stroke-width:1px;stroke-linecap:butt;stroke-linejoin:miter;stroke-opacity:1"
     d="m 289.23767,842.49673 69.95516,0 0,-16.14349 -70.40359,0 0,16.59192 0.44843,-0.44843 z"
     id="path3468"
     inkscape:path-effect="#path-effect3470"
     inkscape:original-d="m 289.23767,842.49673 69.95516,0 0,-16.14349 -70.40359,0 0,16.59192 z"
     inkscape:connector-curvature="0" />
  <path
     style="fill:none;fill-rule:evenodd;stroke:#000000;stroke-width:1px;stroke-linecap:butt;stroke-linejoin:miter;stroke-opacity:1"
     d="m 358.74439,812.90032 0,29.59641 126.4574,0 0,-29.14798 -51.12107,0 0,-117.04036 -6.72646,0 0,117.48879 -68.60987,-0.89686 z"
     id="path3472"
     inkscape:path-effect="#path-effect3474"
     inkscape:original-d="m 358.74439,812.90032 0,29.59641 126.4574,0 0,-29.14798 -51.12107,0 0,-117.04036 -6.72646,0 0,117.48879 z"
     inkscape:connector-curvature="0" />
  <path
     style="fill:none;fill-rule:evenodd;stroke:#000000;stroke-width:1px;stroke-linecap:butt;stroke-linejoin:miter;stroke-opacity:1"
     d="m 484.75336,842.0483 182.06278,0 0,-237.66816 57.84754,0 0,-91.47982 -25.11211,0 0,65.02242 -177.57848,0 0,-35.42601 -37.66816,-37.66816 -4.03371,6.98661 34.62221,34.62221 0,30.58849 -134.62437,0 0,-134.97758 31.83856,0 34.08072,34.08072 5.15695,-5.15695 -38.34081,-38.34081 -33.18385,0 0,-14.7982 -7.62332,0 0,122.86995 -15.24664,0 0,5.38117 14.34978,0 0,54.26009 53.36323,0 0,25.11211 8.28576,2.22016 0,-42.57891 202.925,0 0,229.14798 -75.33632,0 0,26.90583 0,-0.44843"
     id="path3476"
     inkscape:path-effect="#path-effect3478"
     inkscape:original-d="m 484.75336,842.0483 182.06278,0 0,-237.66816 57.84754,0 0,-91.47982 -25.11211,0 0,65.02242 -177.57848,0 0,-35.42601 -37.66816,-37.66816 -4.03371,6.98661 34.62221,34.62221 0,30.58849 -134.62437,0 0,-134.97758 31.83856,0 34.08072,34.08072 5.15695,-5.15695 -38.34081,-38.34081 -33.18385,0 0,-14.7982 -7.62332,0 0,122.86995 -15.24664,0 0,5.38117 14.34978,0 0,54.26009 53.36323,0 0,25.11211 8.28576,2.22016 0,-42.57891 202.925,0 0,229.14798 -75.33632,0 0,26.90583 0,-0.44843"
     inkscape:connector-curvature="0" />
  <path
     style="fill:none;fill-rule:evenodd;stroke:#000000;stroke-width:1px;stroke-linecap:butt;stroke-linejoin:miter;stroke-opacity:1"
     d="m 724.64455,437.67026 0,74.40758 -26.06635,0 0,-75.35545 26.06635,0.94787 z"
     id="path3480"
     inkscape:path-effect="#path-effect3482"
     inkscape:original-d="m 724.64455,437.67026 0,74.40758 -26.06635,0 0,-75.35545 z"
     inkscape:connector-curvature="0" />
  <path
     style="fill:none;fill-rule:evenodd;stroke:#000000;stroke-width:1px;stroke-linecap:butt;stroke-linejoin:miter;stroke-opacity:1"
     d="m 725.11848,436.72239 0.47394,-148.34123 -27.48815,0 -0.47394,56.87204 -239.81042,-0.47393 0,-6.16114 -8.05688,0.47393 0,5.68721 -78.19905,0 0,27.01421 7.10901,0 0,-6.16113 14.21801,0 0,-13.74408 304.73933,0 0,85.30806 27.48815,-0.47394 z"
     id="path3484"
     inkscape:path-effect="#path-effect3486"
     inkscape:original-d="m 725.11848,436.72239 0.47394,-148.34123 -27.48815,0 -0.47394,56.87204 -239.81042,-0.47393 0,-6.16114 -8.05688,0.47393 0,5.68721 -78.19905,0 0,27.01421 7.10901,0 0,-6.16113 14.21801,0 0,-13.74408 304.73933,0 0,85.30806 z"
     inkscape:connector-curvature="0" />
  <path
     style="fill:none;fill-rule:evenodd;stroke:#000000;stroke-width:1px;stroke-linecap:butt;stroke-linejoin:miter;stroke-opacity:1"
     d="m 725.46676,287.75866 0,-75.0421 -26.74945,0 0,75.40115 26.74945,-0.35905 z"
     id="path3502"
     inkscape:path-effect="#path-effect3504"
     inkscape:original-d="m 725.46676,287.75866 0,-75.0421 -26.74945,0 0,75.40115 z"
     inkscape:connector-curvature="0" />
  <path
     style="fill:none;fill-rule:evenodd;stroke:#000000;stroke-width:1px;stroke-linecap:butt;stroke-linejoin:miter;stroke-opacity:1"
     d="m 725.64629,212.53704 0,-102.50966 -369.46563,-0.17953 0,26.21088 95.3286,0 0,142.90313 -29.26283,0 0,6.28343 29.0833,0 0,6.64248 7.18106,0 0,-155.82904 240.20652,0 0,76.65783 26.92898,-0.17952 z"
     id="path3506"
     inkscape:path-effect="#path-effect3508"
     inkscape:original-d="m 725.64629,212.53704 0,-102.50966 -369.46563,-0.17953 0,26.21088 95.3286,0 0,142.90313 -29.26283,0 0,6.28343 29.0833,0 0,6.64248 7.18106,0 0,-155.82904 240.20652,0 0,76.65783 z"
     inkscape:connector-curvature="0" />
</svg>
