<?xml version="1.0" encoding="UTF-8" standalone="no"?>
<!-- Created with Inkscape (http://www.inkscape.org/) -->

<svg
   xmlns:dc="http://purl.org/dc/elements/1.1/"
   xmlns:cc="http://creativecommons.org/ns#"
   xmlns:rdf="http://www.w3.org/1999/02/22-rdf-syntax-ns#"
   xmlns:svg="http://www.w3.org/2000/svg"
   xmlns="http://www.w3.org/2000/svg"
   xmlns:sodipodi="http://sodipodi.sourceforge.net/DTD/sodipodi-0.dtd"
   xmlns:inkscape="http://www.inkscape.org/namespaces/inkscape"
   width="210mm"
   height="297mm"
   viewBox="0 0 744.09448819 1052.3622047"
   id="svg2"
   version="1.1"
   inkscape:version="0.91 r13725"
   sodipodi:docname="planimetria22.svg">
  <g
     inkscape:label="Livello 1"
     inkscape:groupmode="layer"
     id="layer1"
     style="display:inline">
    <path
       style="fill:none;fill-rule:evenodd;stroke:#000000;stroke-width:1px;stroke-linecap:butt;stroke-linejoin:miter;stroke-opacity:1"
       d="m 18.492546,663.73855 -1.681141,75.37114 7.004752,0.28019 1.681141,-75.65133 -7.004752,0 z"
       id="path3514"
       inkscape:path-effect="#path-effect3516"
       inkscape:original-d="m 18.492546,663.73855 -1.681141,75.37114 7.004752,0.28019 1.681141,-75.65133 z"
       inkscape:connector-curvature="0" />
    <path
       style="fill:#241c1f"
       d="m 289.3177,834.46089 0,-7.42504 34.46338,0 34.46338,0 0,7.42504 0,7.42503 -34.46338,0 -34.46338,0 0,-7.42503 z"
       id="path3537"
       inkscape:connector-curvature="0" />
    <path
       style="fill:#241c1f"
       d="m 359.92561,833.91704 c 0,-5.01035 -0.10403,-8.03317 -0.28019,-8.14205 -0.1727,-0.10673 -0.28019,-2.47792 -0.28019,-6.18071 l 0,-6.00755 3.43232,0.003 c 4.02979,0.004 37.38532,0.44872 53.7965,0.71779 l 11.41775,0.18719 0,-58.7336 0,-58.73359 2.6618,0 2.66181,0 0,58.41963 0,58.41964 25.63739,0 25.63739,0 0,14.0095 0,14.0095 -62.34229,0 -62.34229,0 0,-7.96888 z"
       id="path3539"
       inkscape:connector-curvature="0" />
    <path
       style="fill:#241c1f"
       d="m 561.10209,828.15661 0,-13.16893 37.68557,0 37.68556,0 0,-78.17304 0,-78.17303 14.85008,0 14.85007,0 0,91.34197 0,91.34196 -52.53564,0 -52.53564,0 0,-13.16893 z"
       id="path3541"
       inkscape:connector-curvature="0" />
    <path
       style="fill:#241c1f"
       d="m 636.47322,621.51642 0,-37.12519 -102.12929,0 -102.12928,0 0,21.15436 c 0,11.63489 -0.0853,21.15435 -0.18962,21.15435 -0.1043,0 -1.68037,-0.39444 -3.50238,-0.87654 l -3.31275,-0.87653 0,-12.57259 0,-12.57259 -26.61806,0 -26.61806,0 0,-27.17844 0,-27.17844 -7.14485,0 -7.14485,0 0,-2.10142 0,-2.10143 7.56514,0 7.56513,0 0,-30.961 0,-30.96101 3.36228,0 3.36228,0 0,49.17336 0,49.17336 67.9461,0 67.94609,0 0,-15.76155 0,-15.76154 -17.19663,-17.19494 -17.19665,-17.19493 1.69476,-2.92844 1.69476,-2.92844 18.44388,18.44229 18.44388,18.44229 0,17.86292 0,17.86291 89.38063,0 89.38064,0 0,-32.50205 0,-32.50205 12.04818,0 12.04817,0 0,45.11061 0,45.1106 -28.99967,0 -28.99968,0 0,27.45863 0,27.45863 -14.85007,0 -14.85008,0 0,-37.12519 z"
       id="path3543"
       inkscape:connector-curvature="0" />
    <path
       style="fill:#241c1f"
       d="m 372.81435,448.91933 0,-30.40063 3.22219,0 3.22218,0 0,7.42504 0,7.42504 16.74214,0 16.74213,0 18.84514,18.84668 18.84513,18.84669 -2.10763,2.09357 -2.10764,2.09357 -16.87924,-16.8775 -16.87923,-16.8775 -16.4603,0 -16.46031,0 0,18.91283 0,18.91283 -3.36228,0 -3.36228,0 0,-30.40062 z"
       id="path3545"
       inkscape:connector-curvature="0" />
    <path
       style="fill:#241c1f"
       d="m 284.97877,431.47749 c -0.25081,-0.8861 -0.50442,-1.80022 -0.56358,-2.03137 -0.0591,-0.23116 -0.246,-0.95615 -0.41522,-1.6111 l -0.30767,-1.19081 -35.01296,0 -35.01296,0 0,2.24152 0,2.24153 -3.08209,0 -3.08209,0 0,-1.96133 0,-1.96134 -29.56006,0 -29.56005,0 0,-2.52171 0,-2.52171 68.50648,0 68.50647,0 0,-2.8019 0,-2.8019 2.38162,0 2.38161,0 0,8.26561 0,8.26561 -2.36173,0 -2.36173,0 -0.45604,-1.6111 z"
       id="path3547"
       inkscape:connector-curvature="0" />
    <path
       style="fill:#241c1f"
       d="m 20.335219,424.2626 0,-37.40538 13.028839,0 13.028839,0 0,17.65198 0,17.65197 50.994596,0 50.994597,0 0,2.52171 0,2.52171 -51.414882,0 -51.414881,0 0,17.23169 0,17.2317 -12.608554,0 -12.608554,0 0,-37.40538 z"
       id="path3549"
       inkscape:connector-curvature="0" />
    <path
       style="fill:#241c1f"
       d="m 24.608118,504.32732 -5.113469,-0.0831 0,-20.44756 0,-20.44755 13.309029,0 13.309029,0 0,20.59397 0,20.59397 -8.19556,-0.0633 c -4.507558,-0.0348 -10.496621,-0.10072 -13.309029,-0.14642 z"
       id="path3551"
       inkscape:connector-curvature="0" />
    <path
       style="fill:#241c1f"
       d="m 19.144411,738.56891 -1.611093,-0.10109 -0.009,-1.03673 c -0.02693,-3.0998 1.460977,-70.19758 1.584076,-71.43449 l 0.146395,-1.471 2.781739,0 c 2.460919,0 2.782213,0.0565 2.785845,0.49033 0.01776,2.12197 -1.444591,67.16155 -1.574954,70.04752 l -0.167699,3.71252 -1.162104,-0.053 c -0.639158,-0.0291 -1.887096,-0.0985 -2.773198,-0.15408 z"
       id="path3553"
       inkscape:connector-curvature="0" />
    <path
       style="fill:#241c1f"
       d="m 699.2358,474.7401 0,-36.80172 3.57243,-0.16617 c 1.96483,-0.0914 6.3463,-0.0528 9.7366,0.0859 3.3903,0.13862 7.33047,0.25696 8.75594,0.26298 l 2.59176,0.0109 0,36.7049 0,36.7049 -12.32836,0 -12.32837,0 0,-36.80171 z"
       id="path3555"
       inkscape:connector-curvature="0" />
    <path
       style="fill:#241c1f"
       d="m 701.54827,436.26286 -3.15123,-0.11052 -0.0709,-42.36958 -0.071,-42.36958 -123.63388,-0.0704 -123.63388,-0.0704 0,-5.88367 0,-5.88368 2.03138,-0.003 c 1.11726,-0.002 2.5042,-0.0812 3.08209,-0.17675 l 1.05072,-0.17367 0,3.0841 0,3.0841 65.77462,0.16965 c 36.17604,0.0933 90.42434,0.20346 120.55178,0.2448 l 54.77717,0.0751 0.17034,-19.05293 c 0.0937,-10.47911 0.18825,-23.24527 0.21014,-28.36925 l 0.0398,-9.31632 13.16777,0 13.16777,0 -0.14506,41.25799 c -0.0798,22.6919 -0.22078,55.78935 -0.3133,73.5499 l -0.16823,32.29191 -3.98331,0 c -2.19082,0 -6.61991,0.0456 -9.84243,0.10135 -3.22252,0.0557 -7.27718,0.0516 -9.01036,-0.009 l 0,-1e-5 z"
       id="path3557"
       inkscape:connector-curvature="0" />
    <path
       style="fill:#241c1f"
       d="m 699.2358,250.40465 0,-36.98509 12.74865,0 12.74865,0 0,36.8003 0,36.8003 -6.34956,0.18479 c -3.49225,0.10164 -9.22915,0.18479 -12.74865,0.18479 l -6.39909,0 0,-36.98509 z"
       id="path3559"
       inkscape:connector-curvature="0" />
    <path
       style="fill:#241c1f"
       d="m 451.82795,287.95012 c 0,-2.8019 -0.07,-3.36228 -0.42028,-3.36228 -0.34246,0 -0.42029,-0.46698 -0.42029,-2.52171 0,-2.33492 0.0415,-2.52171 0.56038,-2.52171 0.55893,0 0.56038,-0.1868 0.56038,-72.00885 0,-71.82206 -0.001,-72.00886 -0.56038,-72.00886 -0.55198,0 -0.56038,-0.18679 -0.56038,-12.46846 l 0,-12.46845 137.01296,0 137.01295,0 0,50.7144 0,50.71441 -12.88874,0 -12.88875,0 0,-38.24595 0,-38.24595 -120.62183,0 -120.62183,0 0,77.89285 0,77.89284 -3.08209,0 -3.0821,0 0,-3.36228 z"
       id="path3561"
       inkscape:connector-curvature="0" />
    <path
       style="fill:#241c1f"
       d="m 356.84351,123.05825 0,-12.46845 47.07194,0 47.07193,0 0,12.46845 0,12.46846 -47.07193,0 -47.07194,0 0,-12.46846 z"
       id="path3563"
       inkscape:connector-curvature="0" />
    <path
       style="fill:#241c1f"
       d="m 372.25397,358.27783 0,-12.88874 39.08652,0 39.08651,0 0,-2.8019 c 0,-1.68114 0.11208,-2.8019 0.28019,-2.8019 0.17769,0 0.28019,2.10142 0.28019,5.74389 l 0,5.7439 -29.41996,0 -29.41995,0 0,6.86466 0,6.86465 -7.00476,0 -7.00475,0 0,3.0821 0,3.08209 -2.94199,0 -2.942,0 0,-12.88875 z"
       id="path3565"
       inkscape:connector-curvature="0" />
    <path
       style="fill:#241c1f;fill-rule:evenodd;stroke:#000000;stroke-width:1px;stroke-linecap:butt;stroke-linejoin:miter;stroke-opacity:1"
       d="m 313.55353,109.87929 2.05011,0 0,1.30979"
       id="path3571"
       inkscape:path-effect="#path-effect3573"
       inkscape:original-d="m 313.55353,109.87929 2.05011,0 0,1.30979"
       inkscape:connector-curvature="0" />
    <path
       style="fill:#241c1f"
       d="m 283.88211,342.51294 0,-25.95745 3.24468,0 3.24468,0 0,25.95745 0,25.95745 -3.24468,0 -3.24468,0 0,-25.95745 z"
       id="path3575"
       inkscape:connector-curvature="0" />
    <path
       style="fill:#241c1f"
       d="m 283.88211,300.59805 0,-15.95745 -13.61702,0 -13.61702,0 0,-9.57447 0,-9.57447 9.30851,0 9.30851,0 0,6.80851 0,6.80851 49.73404,0 49.73404,0 0,2.97873 0,2.97872 -42.18085,0 -42.18085,0 0,15.74468 0,15.74468 -3.24468,0 -3.24468,0 0,-15.95744 z"
       id="path3577"
       inkscape:connector-curvature="0" />
    <path
       style="fill:#241c1f"
       d="m 256.64807,261.39592 0,-4.09575 -31.11703,0 -31.11702,0 0,-13.35106 0,-13.35106 27.34043,0 27.34042,0 0,-3.82979 0,-3.82979 13.08511,0 13.08511,0 0,21.2766 0,21.27659 -9.30851,0 -9.30851,0 0,-4.09574 z"
       id="path3579"
       inkscape:connector-curvature="0" />
    <path
       style="fill:#241c1f"
       d="m 100.797,243.94911 0,-13.35106 46.80851,0 46.80851,0 0,13.35106 0,13.35106 -46.80851,0 -46.80851,0 0,-13.35106 z"
       id="path3581"
       inkscape:connector-curvature="0" />
    <path
       style="fill:#241c1f"
       d="m 20.797002,268.94911 0,-38.35106 40,0 39.999998,0 0,13.35106 0,13.35106 -27.446806,0 -27.446809,0 0,25 0,25 -12.553191,0 -12.553192,0 0,-38.35106 z"
       id="path3583"
       inkscape:connector-curvature="0" />
    <path
       style="fill:#241c1f"
       d="m 19.945938,334.10868 c 0,-16.09929 -0.03577,-24.25532 -0.106383,-24.25532 -0.07055,0 -0.106383,-6.75531 -0.106383,-20.05319 l 0,-20.05319 0.478724,0 0.478723,0 0,19.57447 0,19.57447 12.659575,0 12.659574,0 0,-19.57447 0,-19.57447 0.496391,0 0.496392,0 -0.07084,30.07979 c -0.03896,16.54388 -0.07085,36.48271 -0.07086,44.30851 l -2.1e-5,14.22872 -0.425532,0 -0.425532,0 0,-24.25532 0,-24.25532 -12.606383,0 -12.606383,0 0,24.25532 0,24.25532 -0.425532,0 -0.425532,0 0,-24.25532 z"
       id="path3585"
       inkscape:connector-curvature="0" />
    <path
       style="fill:#241c1f"
       d="m 20.797002,308.09805 0,-0.79788 12.553192,0 12.553191,0 0,0.79788 0,0.79787 -12.553191,0 -12.553192,0 0,-0.79787 z"
       id="path3587"
       inkscape:connector-curvature="0" />
    <path
       style="fill:#241c1f"
       d="m 20.903385,334.16188 0,-24.20213 12.5,0 12.5,0 0,24.20213 0,24.20212 -12.5,0 -12.5,0 0,-24.20212 z"
       id="path3589"
       inkscape:connector-curvature="0" />
    <path
       style="fill:#241c1f"
       d="m 20.903385,371.87464 0,-13.51064 12.5,0 12.5,0 0,13.51064 0,13.51064 -12.5,0 -12.5,0 0,-13.51064 z"
       id="path3591"
       inkscape:connector-curvature="0" />
    <path
       style="fill:#241c1f"
       d="m 19.094874,538.47039 0,-32.65958 13.297873,0 13.297872,0 0,14.14894 0,14.14893 56.276591,0 56.2766,0 0,5.26596 0,5.26596 -55.90425,0 -55.90426,0 0,13.24468 0,13.24468 -13.670213,0 -13.670213,0 0,-32.65957 z"
       id="path3593"
       inkscape:connector-curvature="0" />
    <path
       style="fill:#241c1f"
       d="m 19.094874,538.47039 0,-32.65958 13.297873,0 13.297872,0 0,14.14894 0,14.14893 56.276591,0 56.2766,0 0,5.26596 0,5.26596 -55.90425,0 -55.90426,0 0,13.24468 0,13.24468 -13.670213,0 -13.670213,0 0,-32.65957 z"
       id="path3595"
       inkscape:connector-curvature="0" />
    <path
       style="fill:#241c1f"
       d="m 158.24381,539.37464 0,-5.26596 24.30851,0 24.30851,0 0,-25.79787 0,-25.79787 3.03192,0 3.03191,0 0,25.79787 0,25.79787 36.2766,0 36.27659,0 0,-25.79787 0,-25.79787 2.28724,0 2.28723,0 0,28.7234 0,28.72341 2.18085,0 2.18085,0 0,2.34042 0,2.34043 -68.0851,0 -68.08511,0 0,-5.26596 z"
       id="path3597"
       inkscape:connector-curvature="0" />
    <path
       style="fill:#241c1f"
       d="m 294.41402,542.30017 0,-2.34042 5.21277,0 5.21277,0 0,2.34042 0,2.34043 -5.21277,0 -5.21277,0 0,-2.34043 z"
       id="path3599"
       inkscape:connector-curvature="0" />
    <path
       style="fill:#241c1f"
       d="m 285.47785,481.59982 c 0,-0.68512 0.0332,-0.90116 0.13298,-0.86522 0.0731,0.0263 1.10224,0.3056 2.28688,0.62056 2.13964,0.56888 2.15391,0.57461 2.15426,0.86523 l 3.5e-4,0.29255 -2.28723,0 -2.28724,0 0,-0.91312 z"
       id="path3601"
       inkscape:connector-curvature="0" />
    <path
       style="fill:#241c1f"
       d="m 206.86083,481.18315 0,-1.32979 3.03192,0 3.03191,0 0,1.32979 0,1.32979 -3.03191,0 -3.03192,0 0,-1.32979 z"
       id="path3603"
       inkscape:connector-curvature="0" />
    <path
       style="fill:#241c1f"
       d="m 19.094874,605.17251 0,-34.04255 13.670213,0 13.670213,0 0,34.04255 0,34.04256 -13.670213,0 -13.670213,0 0,-34.04256 z"
       id="path3605"
       inkscape:connector-curvature="0" />
    <path
       style="fill:#241c1f"
       d="m 26.009768,663.25762 c 0,-0.0687 -1.223404,-0.10638 -3.457447,-0.10638 l -3.457447,0 0,-11.96809 0,-11.96808 13.670213,0 13.670213,0 0,12.07447 0,12.07446 -10.212766,0 c -6.737589,0 -10.212766,-0.0362 -10.212766,-0.10638 z"
       id="path3607"
       inkscape:connector-curvature="0" />
    <path
       style="fill:#241c1f"
       d="m 17.605513,764.05549 0,-24.09574 1.037234,0.001 c 0.570478,5.8e-4 2.449468,0.0474 4.175532,0.104 1.726063,0.0566 7.470744,0.22305 12.765957,0.36985 5.295213,0.1468 10.118351,0.2961 10.718085,0.33178 l 1.090426,0.0649 0,23.65997 0,23.65998 -14.893617,0 -14.893617,0 0,-24.09575 z"
       id="path3611"
       inkscape:connector-curvature="0" />
    <path
       style="fill:#241c1f"
       d="m 17.605513,814.80017 0,-26.64893 14.893617,0 14.893617,0 0,12.87234 0,12.87234 59.680853,0 59.68085,0 0,13.77659 0,13.7766 -74.574469,0 -74.574468,0 0,-26.64894 z"
       id="path3613"
       inkscape:connector-curvature="0" />
    <path
       style="fill:#241c1f"
       d="m 166.75445,827.67251 0,-13.77659 55.31915,0 55.31915,0 0,13.77659 0,13.7766 -55.31915,0 -55.31915,0 0,-13.7766 z"
       id="path3615"
       inkscape:connector-curvature="0" />
    <path
       style="fill:#241c1f"
       d="m 117.81828,827.67251 0,-13.77659 79.78723,0 79.78724,0 0,13.77659 0,13.7766 -79.78724,0 -79.78723,0 0,-13.7766 z"
       id="path3617"
       inkscape:connector-curvature="0" />
    <path
       style="fill:#241c1f"
       d="m 277.39275,827.67251 0,-13.77659 5.42553,0 5.42553,0 0,13.77659 0,13.7766 -5.42553,0 -5.42553,0 0,-13.7766 z"
       id="path3619"
       inkscape:connector-curvature="0" />
    <path
       style="fill:#241c1f"
       d="m 219.94594,827.67251 0,-13.77659 34.14893,0 34.14894,0 0,13.77659 0,13.7766 -34.14894,0 -34.14893,0 0,-13.7766 z"
       id="path3621"
       inkscape:connector-curvature="0" />
    <path
       style="fill:#241c1f"
       d="m 289.41402,834.48102 0,-7.39361 34.4149,0 34.41489,0 0,7.39361 0,7.39362 -34.41489,0 -34.4149,0 0,-7.39362 z"
       id="path3623"
       inkscape:connector-curvature="0" />
    <path
       style="fill:#241c1f"
       d="m 289.41402,834.48102 0,-7.39361 34.4149,0 34.41489,0 0,7.39361 0,7.39362 -34.41489,0 -34.4149,0 0,-7.39362 z"
       id="path3625"
       inkscape:connector-curvature="0" />
    <path
       style="fill:#241c1f"
       d="m 289.41402,834.48102 0,-7.39361 34.4149,0 34.41489,0 0,7.39361 0,7.39362 -34.41489,0 -34.4149,0 0,-7.39362 z"
       id="path3627"
       inkscape:connector-curvature="0" />
    <path
       style="fill:#241c1f"
       d="m 289.32958,833.35582 0,-6.31772 22.54013,0 22.54012,0 0,6.31772 0,6.31771 -22.54012,0 -22.54013,0 0,-6.31771 z"
       id="path3629"
       inkscape:connector-curvature="0" />
    <path
       style="fill:#241c1f"
       d="m 289.32958,833.35582 0,-6.31772 22.54013,0 22.54012,0 0,6.31772 0,6.31771 -22.54012,0 -22.54013,0 0,-6.31771 z"
       id="path3631"
       inkscape:connector-curvature="0" />
    <path
       style="fill:#241c1f"
       d="m 300.58807,827.00339 c 6.2049,-0.006 16.35837,-0.006 22.56327,0 6.2049,0.006 1.12816,0.0118 -11.28163,0.0118 -12.4098,0 -17.48654,-0.005 -11.28164,-0.0118 z"
       id="path3633"
       inkscape:connector-curvature="0" />
    <path
       style="fill:#241c1f"
       d="m 249.6603,166.67437 0,-55.2821 32.31877,0 32.31877,0 0,11.05642 0,11.05642 -19.56136,0 -19.56136,0 0,44.22568 0,44.22569 -12.75741,0 -12.75741,0 0,-55.28211 z"
       id="path3635"
       inkscape:connector-curvature="0" />
    <path
       style="fill:#241c1f"
       d="m 429.53976,285.34855 c 3.97606,-0.35812 10.48234,-0.35812 14.4584,0 3.97606,0.35811 0.72292,0.65112 -7.2292,0.65112 -7.95212,0 -11.20525,-0.29301 -7.2292,-0.65112 z"
       id="path3637"
       inkscape:connector-curvature="0" />
    <path
       style="fill:#241c1f"
       d="m 423.16106,281.49105 c 0,-0.99224 5.66996,-1.70098 13.6079,-1.70098 7.93795,0 13.60791,0.70874 13.60791,1.70098 0,0.99225 -5.66996,1.70099 -13.60791,1.70099 -7.93794,0 -13.6079,-0.70874 -13.6079,-1.70099 z"
       id="path3639"
       inkscape:connector-curvature="0" />
  </g>
  <g
     inkscape:groupmode="layer"
     id="layer2"
     inkscape:label="Livello 2"
     style="display:inline">
    <path
       style="fill:none;fill-rule:evenodd;stroke:#000000;stroke-width:1px;stroke-linecap:butt;stroke-linejoin:miter;stroke-opacity:1"
       d="m 314.66252,109.88988 -66.16499,0 0,120.20815 -228.294479,0 0,79.29698 26.263966,0 0,-51.51778 209.606653,0 0,27.27412 27.27412,0 0,83.84266 7.57614,0 0,-83.33759 84.34774,0 0,-7.07107 -99.50002,0 0,-143.00886 39.94264,0 0,-25"
       id="path3440"
       inkscape:path-effect="#path-effect3442"
       inkscape:original-d="m 314.66252,109.88988 c -66.67007,0 -66.16499,0 -66.16499,0 l 0,120.20815 -228.294479,0 0,79.29698 26.263966,0 0,-51.51778 209.606653,0 0,27.27412 27.27412,0 0,83.84266 7.57614,0 0,-83.33759 84.34774,0 0,-7.07107 -99.50002,0 0,-143.00886 39.94264,0 0,-25"
       inkscape:connector-curvature="0" />
  </g>
  <path
     style="fill:none;fill-rule:evenodd;stroke:#000000;stroke-width:1px;stroke-linecap:butt;stroke-linejoin:miter;stroke-opacity:1"
     d="m 46.428572,309.50506 0,76.78572 -26.071429,0 0,-77.14286"
     id="path3444"
     inkscape:path-effect="#path-effect3446"
     inkscape:original-d="m 46.428572,309.50506 0,76.78572 -26.071429,0 0,-77.14286"
     inkscape:connector-curvature="0" />
  <path
     style="fill:none;fill-rule:evenodd;stroke:#000000;stroke-width:1px;stroke-linecap:butt;stroke-linejoin:miter;stroke-opacity:1"
     d="m 19.642857,385.93363 0,76.78572 26.428572,0 0,-35 160.714281,0 0,3.92857 7.5,0 0,-4.28572 68.92858,0 1.70284,6.35509 5.79716,0 0,-17.78366 -6.07143,0 0,5.71429 -237.500003,0 0,-35.71429 -27.5,0 z"
     id="path3448"
     inkscape:path-effect="#path-effect3450"
     inkscape:original-d="m 19.642857,385.93363 0,76.78572 26.428572,0 0,-35 160.714281,0 0,3.92857 7.5,0 0,-4.28572 68.92858,0 1.70284,6.35509 5.79716,0 0,-17.78366 -6.07143,0 0,5.71429 -237.500003,0 0,-35.71429 z"
     inkscape:connector-curvature="0" />
  <path
     style="fill:none;fill-rule:evenodd;stroke:#000000;stroke-width:1px;stroke-linecap:butt;stroke-linejoin:miter;stroke-opacity:1"
     d="m 18.928571,462.3622 0,42.85715 27.857143,0 0,-42.85715 -27.857143,0 z"
     id="path3452"
     inkscape:path-effect="#path-effect3454"
     inkscape:original-d="m 18.928571,462.3622 0,42.85715 27.857143,0 0,-42.85715 z"
     inkscape:connector-curvature="0" />
  <path
     style="fill:none;fill-rule:evenodd;stroke:#000000;stroke-width:1px;stroke-linecap:butt;stroke-linejoin:miter;stroke-opacity:1"
     d="m 18.571429,504.8622 0,159.09635 28.400664,0 0,-118.77123 258.409077,0 0,-5.8296 -14.79821,0 0,-57.84753 -5.6633,-1.51748 0,53.53541 -71.46675,0 0,-54.26009 -7.17488,0 0,54.26009 -160.089689,0 0,-28.25112 -27.616912,-0.4148 z"
     id="path3456"
     inkscape:path-effect="#path-effect3458"
     inkscape:original-d="m 18.571429,504.8622 0,159.09635 28.400664,0 0,-118.77123 258.409077,0 0,-5.8296 -14.79821,0 0,-57.84753 -5.6633,-1.51748 0,53.53541 -71.46675,0 0,-54.26009 -7.17488,0 0,54.26009 -160.089689,0 0,-28.25112 z"
     inkscape:connector-curvature="0" />
  <path
     style="fill:none;fill-rule:evenodd;stroke:#000000;stroke-width:1px;stroke-linecap:butt;stroke-linejoin:miter;stroke-opacity:1"
     d="m 17.040359,739.35772 0,102.69058 271.748881,0 0,-28.69955 -240.807177,0 0,-73.09417 -30.941704,-0.89686 z"
     id="path3464"
     inkscape:path-effect="#path-effect3466"
     inkscape:original-d="m 17.040359,739.35772 0,102.69058 271.748881,0 0,-28.69955 -240.807177,0 0,-73.09417 z"
     inkscape:connector-curvature="0" />
  <path
     style="fill:none;fill-rule:evenodd;stroke:#000000;stroke-width:1px;stroke-linecap:butt;stroke-linejoin:miter;stroke-opacity:1"
     d="m 289.23767,842.49673 69.95516,0 0,-16.14349 -70.40359,0 0,16.59192 0.44843,-0.44843 z"
     id="path3468"
     inkscape:path-effect="#path-effect3470"
     inkscape:original-d="m 289.23767,842.49673 69.95516,0 0,-16.14349 -70.40359,0 0,16.59192 z"
     inkscape:connector-curvature="0" />
  <path
     style="fill:none;fill-rule:evenodd;stroke:#000000;stroke-width:1px;stroke-linecap:butt;stroke-linejoin:miter;stroke-opacity:1"
     d="m 358.74439,812.90032 0,29.59641 126.4574,0 0,-29.14798 -51.12107,0 0,-117.04036 -6.72646,0 0,117.48879 -68.60987,-0.89686 z"
     id="path3472"
     inkscape:path-effect="#path-effect3474"
     inkscape:original-d="m 358.74439,812.90032 0,29.59641 126.4574,0 0,-29.14798 -51.12107,0 0,-117.04036 -6.72646,0 0,117.48879 z"
     inkscape:connector-curvature="0" />
  <path
     style="fill:none;fill-rule:evenodd;stroke:#000000;stroke-width:1px;stroke-linecap:butt;stroke-linejoin:miter;stroke-opacity:1"
     d="m 484.75336,842.0483 182.06278,0 0,-237.66816 57.84754,0 0,-91.47982 -25.11211,0 0,65.02242 -177.57848,0 0,-35.42601 -37.66816,-37.66816 -4.03371,6.98661 34.62221,34.62221 0,30.58849 -134.62437,0 0,-134.97758 31.83856,0 34.08072,34.08072 5.15695,-5.15695 -38.34081,-38.34081 -33.18385,0 0,-14.7982 -7.62332,0 0,122.86995 -15.24664,0 0,5.38117 14.34978,0 0,54.26009 53.36323,0 0,25.11211 8.28576,2.22016 0,-42.57891 202.925,0 0,229.14798 -75.33632,0 0,26.90583 0,-0.44843"
     id="path3476"
     inkscape:path-effect="#path-effect3478"
     inkscape:original-d="m 484.75336,842.0483 182.06278,0 0,-237.66816 57.84754,0 0,-91.47982 -25.11211,0 0,65.02242 -177.57848,0 0,-35.42601 -37.66816,-37.66816 -4.03371,6.98661 34.62221,34.62221 0,30.58849 -134.62437,0 0,-134.97758 31.83856,0 34.08072,34.08072 5.15695,-5.15695 -38.34081,-38.34081 -33.18385,0 0,-14.7982 -7.62332,0 0,122.86995 -15.24664,0 0,5.38117 14.34978,0 0,54.26009 53.36323,0 0,25.11211 8.28576,2.22016 0,-42.57891 202.925,0 0,229.14798 -75.33632,0 0,26.90583 0,-0.44843"
     inkscape:connector-curvature="0" />
  <path
     style="fill:none;fill-rule:evenodd;stroke:#000000;stroke-width:1px;stroke-linecap:butt;stroke-linejoin:miter;stroke-opacity:1"
     d="m 724.64455,437.67026 0,74.40758 -26.06635,0 0,-75.35545 26.06635,0.94787 z"
     id="path3480"
     inkscape:path-effect="#path-effect3482"
     inkscape:original-d="m 724.64455,437.67026 0,74.40758 -26.06635,0 0,-75.35545 z"
     inkscape:connector-curvature="0" />
  <path
     style="fill:none;fill-rule:evenodd;stroke:#000000;stroke-width:1px;stroke-linecap:butt;stroke-linejoin:miter;stroke-opacity:1"
     d="m 725.11848,436.72239 0.47394,-148.34123 -27.48815,0 -0.47394,56.87204 -239.81042,-0.47393 0,-6.16114 -8.05688,0.47393 0,5.68721 -78.19905,0 0,27.01421 7.10901,0 0,-6.16113 14.21801,0 0,-13.74408 304.73933,0 0,85.30806 27.48815,-0.47394 z"
     id="path3484"
     inkscape:path-effect="#path-effect3486"
     inkscape:original-d="m 725.11848,436.72239 0.47394,-148.34123 -27.48815,0 -0.47394,56.87204 -239.81042,-0.47393 0,-6.16114 -8.05688,0.47393 0,5.68721 -78.19905,0 0,27.01421 7.10901,0 0,-6.16113 14.21801,0 0,-13.74408 304.73933,0 0,85.30806 z"
     inkscape:connector-curvature="0" />
  <path
     style="fill:none;fill-rule:evenodd;stroke:#000000;stroke-width:1px;stroke-linecap:butt;stroke-linejoin:miter;stroke-opacity:1"
     d="m 725.46676,287.75866 0,-75.0421 -26.74945,0 0,75.40115 26.74945,-0.35905 z"
     id="path3502"
     inkscape:path-effect="#path-effect3504"
     inkscape:original-d="m 725.46676,287.75866 0,-75.0421 -26.74945,0 0,75.40115 z"
     inkscape:connector-curvature="0" />
  <path
     style="fill:none;fill-rule:evenodd;stroke:#000000;stroke-width:1px;stroke-linecap:butt;stroke-linejoin:miter;stroke-opacity:1"
     d="m 725.64629,212.53704 0,-102.50966 -369.46563,-0.17953 0,26.21088 95.3286,0 0,142.90313 -29.26283,0 0,6.28343 29.0833,0 0,6.64248 7.18106,0 0,-155.82904 240.20652,0 0,76.65783 26.92898,-0.17952 z"
     id="path3506"
     inkscape:path-effect="#path-effect3508"
     inkscape:original-d="m 725.64629,212.53704 0,-102.50966 -369.46563,-0.17953 0,26.21088 95.3286,0 0,142.90313 -29.26283,0 0,6.28343 29.0833,0 0,6.64248 7.18106,0 0,-155.82904 240.20652,0 0,76.65783 z"
     inkscape:connector-curvature="0" />
</svg>
